<svg width="71" height="19" viewBox="0 0 71 19" fill="none" xmlns="http://www.w3.org/2000/svg">
<path d="M0.632 18V0.983999H4.064V14.808H12.968V18H0.632ZM22.8155 18.336C20.1435 18.336 17.9515 17.528 16.2395 15.912C14.5435 14.28 13.6955 12.144 13.6955 9.504C13.6955 6.896 14.5275 4.768 16.1915 3.12C17.8715 1.472 20.0795 0.647999 22.8155 0.647999C25.5035 0.647999 27.7035 1.464 29.4155 3.096C31.1275 4.728 31.9835 6.864 31.9835 9.504C31.9835 12.096 31.1355 14.216 29.4395 15.864C27.7595 17.512 25.5515 18.336 22.8155 18.336ZM22.8155 15.144C24.4635 15.144 25.8075 14.632 26.8475 13.608C27.9035 12.568 28.4315 11.2 28.4315 9.504C28.4315 7.84 27.9195 6.48 26.8955 5.424C25.8715 4.368 24.5115 3.84 22.8155 3.84C21.1835 3.84 19.8395 4.36 18.7835 5.4C17.7435 6.44 17.2235 7.808 17.2235 9.504C17.2235 11.168 17.7355 12.528 18.7595 13.584C19.7995 14.624 21.1515 15.144 22.8155 15.144ZM42.4409 8.664H50.8649V15.816C49.1369 17.496 46.6969 18.336 43.5449 18.336C40.6009 18.336 38.2649 17.544 36.5369 15.96C34.8249 14.376 33.9689 12.224 33.9689 9.504C33.9689 6.8 34.8089 4.648 36.4889 3.048C38.1689 1.448 40.4009 0.647999 43.1849 0.647999C46.1129 0.647999 48.4569 1.464 50.2169 3.096L48.0809 5.496C46.8169 4.392 45.1929 3.84 43.2089 3.84C41.4809 3.84 40.0969 4.352 39.0569 5.376C38.0169 6.4 37.4969 7.776 37.4969 9.504C37.4969 11.296 38.0489 12.696 39.1529 13.704C40.2569 14.712 41.7609 15.216 43.6649 15.216C45.3449 15.216 46.6809 14.848 47.6729 14.112V11.64H42.4409V8.664ZM61.8155 18.336C59.1435 18.336 56.9515 17.528 55.2395 15.912C53.5435 14.28 52.6955 12.144 52.6955 9.504C52.6955 6.896 53.5275 4.768 55.1915 3.12C56.8715 1.472 59.0795 0.647999 61.8155 0.647999C64.5035 0.647999 66.7035 1.464 68.4155 3.096C70.1275 4.728 70.9835 6.864 70.9835 9.504C70.9835 12.096 70.1355 14.216 68.4395 15.864C66.7595 17.512 64.5515 18.336 61.8155 18.336ZM61.8155 15.144C63.4635 15.144 64.8075 14.632 65.8475 13.608C66.9035 12.568 67.4315 11.2 67.4315 9.504C67.4315 7.84 66.9195 6.48 65.8955 5.424C64.8715 4.368 63.5115 3.84 61.8155 3.84C60.1835 3.84 58.8395 4.36 57.7835 5.4C56.7435 6.44 56.2235 7.808 56.2235 9.504C56.2235 11.168 56.7355 12.528 57.7595 13.584C58.7995 14.624 60.1515 15.144 61.8155 15.144Z" fill="white"/>
</svg>
