<svg width="190" height="40" viewBox="0 0 190 40" fill="none" xmlns="http://www.w3.org/2000/svg">
<path d="M56.4078 29.3104C54.8405 29.3104 53.4714 29.18 52.3002 28.9191C51.1463 28.6408 49.9063 28.1972 48.5802 27.5884L49.9752 24.4053C52.1969 25.4837 54.2808 26.023 56.2269 26.023C57.2603 26.023 58.0525 25.8403 58.6036 25.475C59.172 25.0924 59.4561 24.5358 59.4561 23.8052C59.4561 23.1268 59.1547 22.6224 58.552 22.2919C57.9664 21.944 56.9761 21.6396 55.5811 21.3787C54.4789 21.1526 53.5489 20.9091 52.7911 20.6482C52.0505 20.3872 51.3616 20.0481 50.7244 19.6306C50.0872 19.1957 49.6135 18.6565 49.3035 18.0129C48.9935 17.3694 48.8385 16.604 48.8385 15.7169C48.8385 13.9949 49.4241 12.6295 50.5952 11.6206C51.7663 10.6117 53.4714 10.1073 55.7103 10.1073C58.3625 10.1073 60.6617 10.5856 62.6078 11.5423L61.0836 14.6472C59.3097 13.847 57.5272 13.447 55.7361 13.447C54.7372 13.447 53.9622 13.6383 53.4111 14.021C52.8772 14.4037 52.6102 14.8907 52.6102 15.4821C52.6102 16.1605 52.9461 16.6649 53.6177 16.9954C54.2894 17.3085 55.4433 17.6477 57.0794 18.0129C58.0783 18.2217 58.9136 18.4478 59.5853 18.6913C60.257 18.9348 60.8942 19.2653 61.497 19.6828C62.0998 20.0828 62.5475 20.6047 62.8403 21.2483C63.1331 21.8918 63.2795 22.6485 63.2795 23.5182C63.2795 25.4316 62.6939 26.8753 61.5228 27.8493C60.3689 28.8234 58.6639 29.3104 56.4078 29.3104Z" fill="white"/>
<path d="M72.9917 10.4465C75.4201 10.4465 77.2629 11.0118 78.5201 12.1424C79.7773 13.273 80.4059 14.9255 80.4059 17.0998C80.4059 21.657 77.8054 23.9357 72.6042 23.9357H69.3492V28.9452H65.7066V10.4465H72.9917ZM72.475 20.7003C75.2478 20.7003 76.6342 19.5349 76.6342 17.2041C76.6342 14.8907 75.3426 13.734 72.7592 13.734H69.3492V20.7003H72.475Z" fill="white"/>
<path d="M82.6599 28.9452V10.4465H95.9642V13.7862H86.1991V18.2478H94.4142V21.4048H86.1991V25.6316H96.3775V28.9452H82.6599Z" fill="white"/>
<path d="M107.289 29.3104C104.396 29.3104 102.079 28.4407 100.34 26.7013C98.6003 24.9619 97.7306 22.605 97.7306 19.6306C97.7306 16.6736 98.5917 14.3515 100.314 12.6642C102.053 10.9596 104.378 10.1073 107.289 10.1073C110.716 10.1073 113.386 11.2901 115.297 13.6557L112.456 16.0822C111.285 14.4297 109.597 13.6035 107.392 13.6035C105.618 13.6035 104.198 14.1427 103.13 15.2212C102.062 16.2996 101.528 17.7694 101.528 19.6306C101.528 21.5266 102.062 23.0312 103.13 24.1444C104.198 25.2576 105.618 25.8142 107.392 25.8142C109.614 25.8142 111.302 24.9967 112.456 23.3616L115.297 25.7881C113.386 28.1363 110.716 29.3104 107.289 29.3104Z" fill="white"/>
<path d="M122.378 28.9452V13.9166H116.54V10.4465H131.937V13.9166H126.098V28.9452H122.378Z" fill="white"/>
<path d="M149.802 28.9452H145.359L141.716 23.6747H137.944V28.9452H134.302V10.4465H141.742C144.136 10.4465 145.961 11.0118 147.219 12.1424C148.493 13.273 149.13 14.9081 149.13 17.0476C149.13 20.0046 147.916 21.9788 145.488 22.9703L149.802 28.9452ZM141.148 20.5177C142.526 20.5177 143.559 20.222 144.248 19.6306C144.954 19.0392 145.307 18.2391 145.307 17.2302C145.307 14.8994 144.015 13.734 141.432 13.734H137.944V20.5177H141.148Z" fill="white"/>
<path d="M159.635 29.3104C157.034 29.3104 155.062 28.6669 153.719 27.3797C152.393 26.0925 151.73 24.1792 151.73 21.6396V10.4465H155.424V20.7525C155.424 22.5267 155.76 23.8139 156.431 24.614C157.103 25.3968 158.171 25.7881 159.635 25.7881C161.099 25.7881 162.166 25.3968 162.838 24.614C163.527 23.8139 163.871 22.5267 163.871 20.7525V10.4465H167.54V21.6396C167.54 26.7535 164.905 29.3104 159.635 29.3104Z" fill="white"/>
<path d="M188.062 10.3682H190V28.9452H186.409V18.5087L181.113 25.762H179.744L174.422 18.5609V28.9452H170.857V10.3682H172.769L180.442 20.883L188.062 10.3682Z" fill="white"/>
<g clip-path="url(#clip0_108_601)">
<path fill-rule="evenodd" clip-rule="evenodd" d="M24.6259 0.671853C19.4093 -0.726868 14.1209 0.124102 9.78449 2.62811C5.44813 5.13211 2.06707 9.28589 0.67161 14.5026C-0.727111 19.7192 0.12386 25.0076 2.62786 29.344C5.13187 33.6804 9.28565 37.0614 14.5023 38.4569C19.7125 39.8523 24.9976 39.0079 29.3307 36.5104L29.3568 36.4974C33.6866 33.9934 37.0612 29.8396 38.4566 24.6294C38.5642 24.2219 38.6588 23.8143 38.7403 23.4068C35.8483 31.8513 26.8626 36.7321 18.1116 34.3879C8.97917 31.9393 3.55382 22.5493 6.0024 13.4136C8.34664 4.65935 17.065 -0.684483 25.8258 1.03702C25.4313 0.903342 25.0302 0.782707 24.6259 0.671853Z" fill="url(#paint0_linear_108_601)"/>
<path fill-rule="evenodd" clip-rule="evenodd" d="M36.0211 10.0323C31.5609 2.61486 21.9263 0.215193 14.5089 4.67871C7.09141 9.13897 4.69174 18.7735 9.15525 26.191C13.6155 33.6084 23.2501 36.0081 30.6675 31.5446C30.9577 31.3718 31.2381 31.1859 31.512 30.9968C25.1444 34.2605 17.2444 32.0728 13.5014 25.8486C9.59541 19.3539 11.6951 10.9192 18.1899 7.01317C24.414 3.27021 32.4151 5.04062 36.5102 10.9094C36.4059 10.7072 36.295 10.5051 36.1809 10.3029L36.1646 10.2769L36.1418 10.2345L36.1255 10.2084C36.0896 10.1497 36.057 10.091 36.0211 10.0323Z" fill="url(#paint1_linear_108_601)"/>
<path fill-rule="evenodd" clip-rule="evenodd" d="M35.4505 26.1975C39.4315 20.4983 38.0393 12.6504 32.3434 8.66946C26.6474 4.68848 18.7996 6.08068 14.8186 11.7766C10.8376 17.4726 12.2298 25.3204 17.9258 29.3014C18.1475 29.4579 18.3757 29.6014 18.6039 29.7416C14.1306 26.1388 13.1525 19.631 16.4912 14.8512C19.9766 9.86277 26.8495 8.64663 31.8347 12.132C36.6145 15.4707 37.9317 21.9198 34.968 26.8398C35.1343 26.6311 35.2973 26.4159 35.4538 26.1942L35.4505 26.1975Z" fill="url(#paint2_linear_108_601)"/>
</g>
<defs>
<linearGradient id="paint0_linear_108_601" x1="2.87565" y1="-2.11879" x2="-17.2992" y2="32.4131" gradientUnits="userSpaceOnUse">
<stop stop-color="#8C4CF5"/>
<stop offset="1" stop-color="#E8C2BA"/>
</linearGradient>
<linearGradient id="paint1_linear_108_601" x1="27.3288" y1="-18.0944" x2="-15.1185" y2="7.82116" gradientUnits="userSpaceOnUse">
<stop stop-color="#E8C2BA"/>
<stop offset="1" stop-color="#8C4CF5"/>
</linearGradient>
<linearGradient id="paint2_linear_108_601" x1="25.6335" y1="8.7339" x2="5.4087" y2="16.2237" gradientUnits="userSpaceOnUse">
<stop stop-color="#8C4CF5"/>
<stop offset="1" stop-color="#E8C2BA"/>
</linearGradient>
<clipPath id="clip0_108_601">
<rect width="38.7403" height="39.1283" fill="white" transform="matrix(-1 0 0 1 38.7403 0)"/>
</clipPath>
</defs>
</svg>
