<svg width="53" height="53" viewBox="0 0 53 53" fill="none" xmlns="http://www.w3.org/2000/svg">
<path d="M26.8098 0H26.6902C12.2258 0 0.5 11.7258 0.5 26.1902V26.3098C0.5 40.7742 12.2258 52.5 26.6902 52.5H26.8098C41.2742 52.5 53 40.7742 53 26.3098V26.1902C53 11.7258 41.2742 0 26.8098 0Z" fill="white"/>
<path d="M39.4408 18.9929V23.9499C38.5745 23.8653 37.4488 23.6685 36.2036 23.2123C34.5776 22.6164 33.3674 21.8015 32.5746 21.1706V31.1895L32.5544 31.1582C32.5673 31.3569 32.5746 31.5592 32.5746 31.7634C32.5746 36.7387 28.5263 40.7889 23.549 40.7889C18.5718 40.7889 14.5234 36.7387 14.5234 31.7634C14.5234 26.788 18.5718 22.7359 23.549 22.7359C24.0365 22.7359 24.5147 22.7745 24.9819 22.85V27.7352C24.5331 27.5752 24.0512 27.4888 23.549 27.4888C21.1928 27.4888 19.2744 29.4053 19.2744 31.7634C19.2744 34.1214 21.1928 36.038 23.549 36.038C25.9052 36.038 27.8236 34.1195 27.8236 31.7634C27.8236 31.6751 27.8218 31.5868 27.8163 31.4985V12.0292H32.7696C32.788 12.4485 32.8045 12.8716 32.8229 13.291C32.856 14.1168 33.1503 14.9096 33.6635 15.5588C34.265 16.3222 35.1534 17.2087 36.4004 17.9169C37.5684 18.5772 38.6646 18.8623 39.4408 18.9966V18.9929Z" fill="#8E4FF4"/>
</svg>
