<svg width="50" height="50" viewBox="0 0 50 50" fill="none" xmlns="http://www.w3.org/2000/svg">
<path d="M49.9965 25.0009C49.9965 37.6274 40.6373 48.0661 28.4788 49.76C27.342 49.9177 26.1789 50 24.9982 50C23.6354 50 22.2972 49.8914 20.9939 49.6812C9.09123 47.7648 0 37.4435 0 25.0009C0 11.1936 11.1932 0 25 0C38.8068 0 50 11.1936 50 25.0009H49.9965Z" fill="white"/>
<path d="M10.1387 11.0273L21.6683 26.4427L10.0669 38.9764H12.6787L22.8367 28.0035L31.0433 38.9764H39.9296L27.7519 22.6939L38.551 11.0273H35.9392L26.5852 21.1331L19.0268 11.0273H10.1405H10.1387ZM13.9784 12.9508H18.0598L36.0864 37.053H32.005L13.9784 12.9508Z" fill="#8C4CF5"/>
</svg>
