<svg width="54" height="53" viewBox="0 0 54 53" fill="none" xmlns="http://www.w3.org/2000/svg">
<path d="M53.375 26.25C53.375 11.7525 41.6225 0 27.125 0C12.6275 0 0.875 11.7525 0.875 26.25C0.875 40.7475 12.6275 52.5 27.125 52.5C41.6225 52.5 53.375 40.7475 53.375 26.25Z" fill="white"/>
<path d="M43.6533 20.8104C43.4467 18.8164 43.0022 16.6122 41.3661 15.4538C40.0989 14.5555 38.4332 14.5223 36.8782 14.5241C33.5912 14.5241 30.3024 14.5297 27.0154 14.5315C23.8538 14.5352 20.6922 14.537 17.5306 14.5407C16.2099 14.5407 14.9261 14.4393 13.6994 15.0111C12.6462 15.5017 11.8217 16.4351 11.3255 17.4736C10.6374 18.9179 10.4936 20.554 10.4106 22.1514C10.2575 25.0603 10.2741 27.9765 10.4567 30.8836C10.5913 33.0048 10.9326 35.3493 12.5724 36.7013C14.0259 37.8984 16.0771 37.9575 17.9622 37.9593C23.946 37.9648 29.9316 37.9704 35.9172 37.9741C36.6846 37.9759 37.4851 37.9612 38.2672 37.8763C39.8056 37.7103 41.272 37.2694 42.2607 36.1295C43.2586 34.9803 43.515 33.3811 43.6663 31.8667C44.0352 28.1923 44.0315 24.4829 43.6533 20.8104ZM23.555 31.4V21.0981L32.4753 26.2482L23.555 31.4Z" fill="#8E4FF4"/>
</svg>
