<svg width="1110" height="300" viewBox="0 0 1110 300" fill="none" xmlns="http://www.w3.org/2000/svg">
<path d="M0 74C0 62.9543 8.95431 54 20 54H243.232C250.495 54 257.188 50.0622 260.715 43.7129L279.285 10.2871C282.812 3.93783 289.505 0 296.768 0H555H1110V300H0V250V125V74Z" fill="url(#paint0_linear_2002_155)"/>
<mask id="mask0_2002_155" style="mask-type:alpha" maskUnits="userSpaceOnUse" x="0" y="0" width="1110" height="300">
<path d="M0 74C0 62.9543 8.95431 54 20 54H243.232C250.495 54 257.188 50.0622 260.715 43.7129L279.285 10.2871C282.812 3.93783 289.505 0 296.768 0H555H1110V300H0V250V125V74Z" fill="url(#paint1_linear_2002_155)"/>
</mask>
<g mask="url(#mask0_2002_155)">
<circle cx="710.209" cy="162.764" r="37.836" transform="rotate(30 710.209 162.764)" fill="white" fill-opacity="0.07"/>
<circle cx="795.34" cy="15.3129" r="37.836" transform="rotate(30 795.34 15.3129)" fill="white" fill-opacity="0.07"/>
<circle cx="625.078" cy="310.215" r="37.836" transform="rotate(30 625.078 310.215)" fill="white" fill-opacity="0.07"/>
<circle cx="752.774" cy="89.0385" r="37.836" transform="rotate(30 752.774 89.0385)" fill="white" fill-opacity="0.07"/>
<circle cx="667.643" cy="236.49" r="37.836" transform="rotate(30 667.643 236.49)" fill="white" fill-opacity="0.07"/>
<circle cx="1005.11" cy="333.026" r="37.836" transform="rotate(30 1005.11 333.026)" fill="white" fill-opacity="0.07"/>
<circle cx="1090.24" cy="185.575" r="37.836" transform="rotate(30 1090.24 185.575)" fill="white" fill-opacity="0.07"/>
<circle cx="1047.68" cy="259.301" r="37.836" transform="rotate(30 1047.68 259.301)" fill="white" fill-opacity="0.07"/>
<circle cx="1132.81" cy="111.849" r="37.836" transform="rotate(30 1132.81 111.849)" fill="white" fill-opacity="0.07"/>
<circle cx="857.66" cy="247.895" r="37.836" transform="rotate(30 857.66 247.895)" fill="white" fill-opacity="0.07"/>
<circle cx="1027.92" cy="-47.0075" r="37.836" transform="rotate(30 1027.92 -47.0075)" fill="white" fill-opacity="0.07"/>
<circle cx="942.791" cy="100.444" r="37.836" transform="rotate(30 942.791 100.444)" fill="white" fill-opacity="0.07"/>
<circle cx="900.225" cy="174.17" r="37.836" transform="rotate(30 900.225 174.17)" fill="white" fill-opacity="0.07"/>
<circle cx="985.357" cy="26.7184" r="37.836" transform="rotate(30 985.357 26.7184)" fill="white" fill-opacity="0.07"/>
<circle cx="815.095" cy="321.621" r="37.836" transform="rotate(30 815.095 321.621)" fill="white" fill-opacity="0.07"/>
<circle cx="783.934" cy="205.33" r="37.836" transform="rotate(30 783.934 205.33)" fill="white" fill-opacity="0.07"/>
<circle cx="869.065" cy="57.8785" r="37.836" transform="rotate(30 869.065 57.8785)" fill="white" fill-opacity="0.07"/>
<circle cx="826.5" cy="131.604" r="37.836" transform="rotate(30 826.5 131.604)" fill="white" fill-opacity="0.07"/>
<circle cx="911.631" cy="-15.847" r="37.836" transform="rotate(30 911.631 -15.847)" fill="white" fill-opacity="0.07"/>
<circle cx="741.369" cy="279.055" r="37.836" transform="rotate(30 741.369 279.055)" fill="white" fill-opacity="0.07"/>
<circle cx="1121.4" cy="301.866" r="37.836" transform="rotate(30 1121.4 301.866)" fill="white" fill-opacity="0.07"/>
<circle cx="931.386" cy="290.461" r="37.836" transform="rotate(30 931.386 290.461)" fill="white" fill-opacity="0.07"/>
<circle cx="1101.65" cy="-4.44177" r="37.836" transform="rotate(30 1101.65 -4.44177)" fill="white" fill-opacity="0.07"/>
<circle cx="1016.52" cy="143.009" r="37.836" transform="rotate(30 1016.52 143.009)" fill="white" fill-opacity="0.07"/>
<circle cx="973.951" cy="216.735" r="37.836" transform="rotate(30 973.951 216.735)" fill="white" fill-opacity="0.07"/>
<circle cx="1059.08" cy="69.2838" r="37.836" transform="rotate(30 1059.08 69.2838)" fill="white" fill-opacity="0.07"/>
</g>
<defs>
<linearGradient id="paint0_linear_2002_155" x1="533" y1="40" x2="1064.5" y2="546.5" gradientUnits="userSpaceOnUse">
<stop stop-color="#8C4CF5"/>
<stop offset="1" stop-color="#E8C2BA"/>
</linearGradient>
<linearGradient id="paint1_linear_2002_155" x1="533" y1="40" x2="1064.5" y2="546.5" gradientUnits="userSpaceOnUse">
<stop stop-color="#8C4CF5"/>
<stop offset="1" stop-color="#E8C2BA"/>
</linearGradient>
</defs>
</svg>
