<svg width="825" height="421" viewBox="0 0 825 421" fill="none" xmlns="http://www.w3.org/2000/svg">
<path d="M825 401C825 412.046 816.046 421 805 421H567.359C562.609 421 558.014 419.309 554.396 416.231L506.854 375.769C503.236 372.691 498.642 371 493.891 371H300.265C295.27 371 290.456 369.131 286.769 365.761L243.543 326.239C239.857 322.869 235.043 321 230.048 321H20C8.95428 321 0 312.046 0 301V20C0 8.95428 8.95428 0 20 0H270H805C816.046 0 825 8.95432 825 20V401Z" fill="#D9D9D9"/>
<path d="M825 401C825 412.046 816.046 421 805 421H567.359C562.609 421 558.014 419.309 554.396 416.231L506.854 375.769C503.236 372.691 498.642 371 493.891 371H300.265C295.27 371 290.456 369.131 286.769 365.761L243.543 326.239C239.857 322.869 235.043 321 230.048 321H20C8.95428 321 0 312.046 0 301V20C0 8.95428 8.95428 0 20 0H270H805C816.046 0 825 8.95432 825 20V401Z" fill="url(#paint0_linear_32_1859)"/>
<mask id="mask0_32_1859" style="mask-type:alpha" maskUnits="userSpaceOnUse" x="0" y="0" width="825" height="421">
<path d="M825 401C825 412.046 816.046 421 805 421H567.359C562.609 421 558.014 419.309 554.396 416.231L506.854 375.769C503.236 372.691 498.642 371 493.891 371H300.265C295.27 371 290.456 369.131 286.769 365.761L243.543 326.239C239.857 322.869 235.043 321 230.048 321H20C8.95428 321 0 312.046 0 301V20C0 8.95428 8.95428 0 20 0H270H805C816.046 0 825 8.95432 825 20V401Z" fill="#D9D9D9"/>
<path d="M825 401C825 412.046 816.046 421 805 421H567.359C562.609 421 558.014 419.309 554.396 416.231L506.854 375.769C503.236 372.691 498.642 371 493.891 371H300.265C295.27 371 290.456 369.131 286.769 365.761L243.543 326.239C239.857 322.869 235.043 321 230.048 321H20C8.95428 321 0 312.046 0 301V20C0 8.95428 8.95428 0 20 0H270H805C816.046 0 825 8.95432 825 20V401Z" fill="url(#paint1_linear_32_1859)"/>
</mask>
<g mask="url(#mask0_32_1859)">
<circle cx="381.209" cy="144.764" r="37.836" transform="rotate(30 381.209 144.764)" fill="white" fill-opacity="0.07"/>
<circle cx="210.947" cy="439.667" r="37.836" transform="rotate(30 210.947 439.667)" fill="white" fill-opacity="0.07"/>
<circle cx="466.34" cy="-2.68701" r="37.836" transform="rotate(30 466.34 -2.68701)" fill="white" fill-opacity="0.07"/>
<circle cx="296.078" cy="292.215" r="37.836" transform="rotate(30 296.078 292.215)" fill="white" fill-opacity="0.07"/>
<circle cx="423.774" cy="71.0386" r="37.836" transform="rotate(30 423.774 71.0386)" fill="white" fill-opacity="0.07"/>
<circle cx="253.513" cy="365.941" r="37.836" transform="rotate(30 253.513 365.941)" fill="white" fill-opacity="0.07"/>
<circle cx="338.643" cy="218.49" r="37.836" transform="rotate(30 338.643 218.49)" fill="white" fill-opacity="0.07"/>
<circle cx="676.111" cy="315.026" r="37.836" transform="rotate(30 676.111 315.026)" fill="white" fill-opacity="0.07"/>
<circle cx="846.373" cy="20.1238" r="37.836" transform="rotate(30 846.373 20.1238)" fill="white" fill-opacity="0.07"/>
<circle cx="761.242" cy="167.575" r="37.836" transform="rotate(30 761.242 167.575)" fill="white" fill-opacity="0.07"/>
<circle cx="590.98" cy="462.477" r="37.836" transform="rotate(30 590.98 462.477)" fill="white" fill-opacity="0.07"/>
<circle cx="718.677" cy="241.301" r="37.836" transform="rotate(30 718.677 241.301)" fill="white" fill-opacity="0.07"/>
<circle cx="803.808" cy="93.8494" r="37.836" transform="rotate(30 803.808 93.8494)" fill="white" fill-opacity="0.07"/>
<circle cx="633.546" cy="388.752" r="37.836" transform="rotate(30 633.546 388.752)" fill="white" fill-opacity="0.07"/>
<circle cx="528.66" cy="229.895" r="37.836" transform="rotate(30 528.66 229.895)" fill="white" fill-opacity="0.07"/>
<circle cx="613.791" cy="82.444" r="37.836" transform="rotate(30 613.791 82.444)" fill="white" fill-opacity="0.07"/>
<circle cx="443.529" cy="377.346" r="37.836" transform="rotate(30 443.529 377.346)" fill="white" fill-opacity="0.07"/>
<circle cx="571.225" cy="156.17" r="37.836" transform="rotate(30 571.225 156.17)" fill="white" fill-opacity="0.07"/>
<circle cx="400.964" cy="451.072" r="37.836" transform="rotate(30 400.964 451.072)" fill="white" fill-opacity="0.07"/>
<circle cx="656.357" cy="8.71832" r="37.836" transform="rotate(30 656.357 8.71832)" fill="white" fill-opacity="0.07"/>
<circle cx="486.095" cy="303.621" r="37.836" transform="rotate(30 486.095 303.621)" fill="white" fill-opacity="0.07"/>
<circle cx="823.562" cy="400.157" r="37.836" transform="rotate(30 823.562 400.157)" fill="white" fill-opacity="0.07"/>
<circle cx="866.128" cy="326.432" r="37.836" transform="rotate(30 866.128 326.432)" fill="white" fill-opacity="0.07"/>
<circle cx="454.934" cy="187.33" r="37.836" transform="rotate(30 454.934 187.33)" fill="white" fill-opacity="0.07"/>
<circle cx="540.065" cy="39.8785" r="37.836" transform="rotate(30 540.065 39.8785)" fill="white" fill-opacity="0.07"/>
<circle cx="369.804" cy="334.781" r="37.836" transform="rotate(30 369.804 334.781)" fill="white" fill-opacity="0.07"/>
<circle cx="497.5" cy="113.604" r="37.836" transform="rotate(30 497.5 113.604)" fill="white" fill-opacity="0.07"/>
<circle cx="327.238" cy="408.506" r="37.836" transform="rotate(30 327.238 408.506)" fill="white" fill-opacity="0.07"/>
<circle cx="582.631" cy="-33.8471" r="37.836" transform="rotate(30 582.631 -33.8471)" fill="white" fill-opacity="0.07"/>
<circle cx="412.369" cy="261.055" r="37.836" transform="rotate(30 412.369 261.055)" fill="white" fill-opacity="0.07"/>
<circle cx="749.837" cy="357.592" r="37.836" transform="rotate(30 749.837 357.592)" fill="white" fill-opacity="0.07"/>
<circle cx="834.968" cy="210.141" r="37.836" transform="rotate(30 834.968 210.141)" fill="white" fill-opacity="0.07"/>
<circle cx="792.402" cy="283.866" r="37.836" transform="rotate(30 792.402 283.866)" fill="white" fill-opacity="0.07"/>
<circle cx="707.271" cy="431.317" r="37.836" transform="rotate(30 707.271 431.317)" fill="white" fill-opacity="0.07"/>
<circle cx="602.386" cy="272.461" r="37.836" transform="rotate(30 602.386 272.461)" fill="white" fill-opacity="0.07"/>
<circle cx="772.648" cy="-22.4417" r="37.836" transform="rotate(30 772.648 -22.4417)" fill="white" fill-opacity="0.07"/>
<circle cx="687.516" cy="125.009" r="37.836" transform="rotate(30 687.516 125.009)" fill="white" fill-opacity="0.07"/>
<circle cx="517.255" cy="419.912" r="37.836" transform="rotate(30 517.255 419.912)" fill="white" fill-opacity="0.07"/>
<circle cx="644.951" cy="198.735" r="37.836" transform="rotate(30 644.951 198.735)" fill="white" fill-opacity="0.07"/>
<circle cx="730.082" cy="51.2838" r="37.836" transform="rotate(30 730.082 51.2838)" fill="white" fill-opacity="0.07"/>
<circle cx="559.82" cy="346.186" r="37.836" transform="rotate(30 559.82 346.186)" fill="white" fill-opacity="0.07"/>
</g>
<defs>
<linearGradient id="paint0_linear_32_1859" x1="701.02" y1="363.591" x2="-45.1341" y2="-219.916" gradientUnits="userSpaceOnUse">
<stop stop-color="#8C4CF5"/>
<stop offset="1" stop-color="#E8C2BA"/>
</linearGradient>
<linearGradient id="paint1_linear_32_1859" x1="701.02" y1="363.591" x2="-45.1341" y2="-219.916" gradientUnits="userSpaceOnUse">
<stop stop-color="#8C4CF5"/>
<stop offset="1" stop-color="#E8C2BA"/>
</linearGradient>
</defs>
</svg>
