<svg width="540" height="331" viewBox="0 0 540 331" fill="none" xmlns="http://www.w3.org/2000/svg">
<path d="M190 170.568C190 167.561 190.678 164.593 191.983 161.885L264.546 11.3172C267.88 4.39826 274.882 0 282.563 0H520C531.046 0 540 8.95431 540 20V311C540 322.046 531.046 331 520 331H210C198.954 331 190 322.046 190 311V170.568Z" fill="url(#paint0_linear_2008_43)"/>
<mask id="mask0_2008_43" style="mask-type:alpha" maskUnits="userSpaceOnUse" x="190" y="0" width="350" height="331">
<path d="M190 170.568C190 167.561 190.678 164.593 191.983 161.885L264.546 11.3172C267.88 4.39826 274.882 0 282.563 0H520C531.046 0 540 8.95431 540 20V311C540 322.046 531.046 331 520 331H210C198.954 331 190 322.046 190 311V170.568Z" fill="url(#paint1_linear_2008_43)"/>
</mask>
<g mask="url(#mask0_2008_43)">
<circle cx="338.433" cy="85.5096" r="37.836" transform="rotate(30 338.433 85.5096)" fill="white" fill-opacity="0.07"/>
<circle cx="168.171" cy="380.412" r="37.836" transform="rotate(30 168.171 380.412)" fill="white" fill-opacity="0.07"/>
<circle cx="253.302" cy="232.961" r="37.836" transform="rotate(30 253.302 232.961)" fill="white" fill-opacity="0.07"/>
<circle cx="380.998" cy="11.784" r="37.836" transform="rotate(30 380.998 11.784)" fill="white" fill-opacity="0.07"/>
<circle cx="210.736" cy="306.686" r="37.836" transform="rotate(30 210.736 306.686)" fill="white" fill-opacity="0.07"/>
<circle cx="295.867" cy="159.235" r="37.836" transform="rotate(30 295.867 159.235)" fill="white" fill-opacity="0.07"/>
<circle cx="190.981" cy="0.378599" r="37.836" transform="rotate(30 190.981 0.378599)" fill="white" fill-opacity="0.07"/>
<circle cx="148.416" cy="74.1041" r="37.836" transform="rotate(30 148.416 74.1041)" fill="white" fill-opacity="0.07"/>
<circle cx="485.884" cy="170.641" r="37.836" transform="rotate(30 485.884 170.641)" fill="white" fill-opacity="0.07"/>
<circle cx="571.015" cy="23.1894" r="37.836" transform="rotate(30 571.015 23.1894)" fill="white" fill-opacity="0.07"/>
<circle cx="400.753" cy="318.092" r="37.836" transform="rotate(30 400.753 318.092)" fill="white" fill-opacity="0.07"/>
<circle cx="528.449" cy="96.915" r="37.836" transform="rotate(30 528.449 96.915)" fill="white" fill-opacity="0.07"/>
<circle cx="443.318" cy="244.366" r="37.836" transform="rotate(30 443.318 244.366)" fill="white" fill-opacity="0.07"/>
<circle cx="412.158" cy="128.075" r="37.836" transform="rotate(30 412.158 128.075)" fill="white" fill-opacity="0.07"/>
<circle cx="497.289" cy="-19.376" r="37.836" transform="rotate(30 497.289 -19.376)" fill="white" fill-opacity="0.07"/>
<circle cx="327.027" cy="275.526" r="37.836" transform="rotate(30 327.027 275.526)" fill="white" fill-opacity="0.07"/>
<circle cx="454.724" cy="54.3494" r="37.836" transform="rotate(30 454.724 54.3494)" fill="white" fill-opacity="0.07"/>
<circle cx="284.462" cy="349.252" r="37.836" transform="rotate(30 284.462 349.252)" fill="white" fill-opacity="0.07"/>
<circle cx="369.593" cy="201.801" r="37.836" transform="rotate(30 369.593 201.801)" fill="white" fill-opacity="0.07"/>
<circle cx="264.707" cy="42.944" r="37.836" transform="rotate(30 264.707 42.944)" fill="white" fill-opacity="0.07"/>
<circle cx="179.576" cy="190.395" r="37.836" transform="rotate(30 179.576 190.395)" fill="white" fill-opacity="0.07"/>
<circle cx="307.273" cy="-30.7815" r="37.836" transform="rotate(30 307.273 -30.7815)" fill="white" fill-opacity="0.07"/>
<circle cx="222.142" cy="116.67" r="37.836" transform="rotate(30 222.142 116.67)" fill="white" fill-opacity="0.07"/>
<circle cx="559.609" cy="213.206" r="37.836" transform="rotate(30 559.609 213.206)" fill="white" fill-opacity="0.07"/>
<circle cx="474.479" cy="360.657" r="37.836" transform="rotate(30 474.479 360.657)" fill="white" fill-opacity="0.07"/>
<circle cx="517.044" cy="286.932" r="37.836" transform="rotate(30 517.044 286.932)" fill="white" fill-opacity="0.07"/>
</g>
<path d="M0 20C0 8.9543 8.95431 0 20 0H242.244C248.145 0 252.015 6.17085 249.446 11.4833L186.461 141.708C183.122 148.613 176.127 153 168.457 153H20C8.9543 153 0 144.046 0 133V20Z" fill="url(#paint2_linear_2008_43)"/>
<path d="M0 20C0 8.9543 8.95431 0 20 0H242.244C248.145 0 252.015 6.17085 249.446 11.4833L186.461 141.708C183.122 148.613 176.127 153 168.457 153H20C8.9543 153 0 144.046 0 133V20Z" fill="url(#paint3_linear_2008_43)"/>
<mask id="mask1_2008_43" style="mask-type:alpha" maskUnits="userSpaceOnUse" x="0" y="0" width="251" height="153">
<path d="M0 20C0 8.9543 8.95431 0 20 0H242.244C248.145 0 252.015 6.17085 249.446 11.4833L186.461 141.708C183.122 148.613 176.127 153 168.457 153H20C8.9543 153 0 144.046 0 133V20Z" fill="url(#paint4_linear_2008_43)"/>
<path d="M0 20C0 8.9543 8.95431 0 20 0H242.244C248.145 0 252.015 6.17085 249.446 11.4833L186.461 141.708C183.122 148.613 176.127 153 168.457 153H20C8.9543 153 0 144.046 0 133V20Z" fill="#EA4073"/>
</mask>
<g mask="url(#mask1_2008_43)">
<path d="M-113.02 153.188C-107.095 149.094 -93.504 138.776 -86.5383 130.259C-77.8312 119.614 -78.1912 110.606 -38.2375 104.475C1.71614 98.3442 -5.51436 96.7188 7.64086 94.2497C18.165 92.2744 41.859 96.165 52.3904 98.3572C60.8372 100.859 79.0657 100.596 84.4059 79.5312C91.0812 53.2006 109.106 33.5053 123.847 35.1851C138.589 36.8649 169.03 43.8824 177.346 41.4341C185.663 38.9859 188.494 37.1718 214.017 10.5851C234.436 -10.6842 278.189 -12.4877 297.513 -10.7308" stroke="#BE8AF9" stroke-width="5" stroke-linecap="round"/>
<path d="M-102.513 178.743C-96.5889 174.648 -79.1178 181.28 -72.1527 172.762C-63.4465 162.114 -68.0166 127.27 -28.0619 121.142C11.8928 115.013 5.84477 108.543 19.0003 106.075C29.5247 104.1 52.3654 121.72 62.8975 123.914C71.3449 126.418 84.0174 119.272 89.3554 98.2015C96.028 71.8639 130.694 63.3681 143.816 58.351C157.682 53.049 170.407 30.2539 178.724 27.8058C187.04 25.3578 225.57 47.9504 251.091 21.3587C271.508 0.0854552 288.693 13.0621 308.018 14.8217" stroke="white" stroke-width="5" stroke-linecap="round"/>
<g filter="url(#filter0_d_2008_43)">
<rect x="111" y="27" width="18" height="18" rx="9" fill="#BE8AF9"/>
<rect x="113" y="29" width="14" height="14" rx="7" stroke="white" stroke-width="4"/>
</g>
</g>
<rect y="166" width="177" height="165" rx="20" fill="white"/>
<rect y="166" width="177" height="165" rx="20" fill="url(#paint5_linear_2008_43)"/>
<path d="M87.4001 197.465C96.7177 196.87 106.024 198.786 114.349 203.013C122.674 207.24 129.712 213.623 134.731 221.496C139.749 229.369 142.563 238.445 142.879 247.776C143.195 257.107 141.002 266.352 136.529 274.547C132.056 282.743 125.466 289.587 117.446 294.368C109.426 299.149 100.271 301.691 90.9346 301.729C81.5981 301.767 72.4225 299.299 64.3645 294.583C56.3065 289.867 49.6613 283.076 45.1217 274.917L60.6257 266.291C63.6218 271.676 68.0078 276.158 73.3262 279.27C78.6446 282.383 84.7006 284.012 90.8628 283.987C97.025 283.962 103.068 282.284 108.361 279.129C113.654 275.973 118.003 271.456 120.956 266.047C123.908 260.638 125.355 254.536 125.147 248.377C124.938 242.218 123.081 236.229 119.769 231.032C116.457 225.835 111.811 221.623 106.317 218.833C100.822 216.043 94.6797 214.778 88.53 215.171L87.4001 197.465Z" fill="#6E3AC4"/>
<path d="M45.4132 281.498C39.4883 273.355 35.9407 263.738 35.1627 253.711C34.3848 243.684 36.4068 233.639 41.0053 224.685C45.6037 215.732 52.5991 208.22 61.2177 202.981C69.8363 197.742 79.742 194.98 89.8389 195L89.7882 220.243C84.3669 220.232 79.0483 221.715 74.4207 224.528C69.7932 227.341 66.0372 231.374 63.5682 236.182C61.0992 240.989 60.0135 246.383 60.4312 251.766C60.8489 257.15 62.7537 262.314 65.9349 266.686L45.4132 281.498Z" fill="#EA4073"/>
<defs>
<filter id="filter0_d_2008_43" x="107" y="25" width="26" height="26" filterUnits="userSpaceOnUse" color-interpolation-filters="sRGB">
<feFlood flood-opacity="0" result="BackgroundImageFix"/>
<feColorMatrix in="SourceAlpha" type="matrix" values="0 0 0 0 0 0 0 0 0 0 0 0 0 0 0 0 0 0 127 0" result="hardAlpha"/>
<feOffset dy="2"/>
<feGaussianBlur stdDeviation="2"/>
<feColorMatrix type="matrix" values="0 0 0 0 0.268354 0 0 0 0 0.268354 0 0 0 0 0.31049 0 0 0 0.15 0"/>
<feBlend mode="normal" in2="BackgroundImageFix" result="effect1_dropShadow_2008_43"/>
<feBlend mode="normal" in="SourceGraphic" in2="effect1_dropShadow_2008_43" result="shape"/>
</filter>
<linearGradient id="paint0_linear_2008_43" x1="-4.18389e-05" y1="267" x2="540" y2="267" gradientUnits="userSpaceOnUse">
<stop stop-color="#562B9E"/>
<stop offset="1" stop-color="#8648EB"/>
</linearGradient>
<linearGradient id="paint1_linear_2008_43" x1="9.1997e-06" y1="267" x2="540" y2="267" gradientUnits="userSpaceOnUse">
<stop stop-color="#562B9E"/>
<stop offset="1" stop-color="#8648EB"/>
</linearGradient>
<linearGradient id="paint2_linear_2008_43" x1="0" y1="76.5" x2="255" y2="76.5" gradientUnits="userSpaceOnUse">
<stop stop-color="#BE8AF9"/>
<stop offset="1" stop-color="#EDC9C6"/>
</linearGradient>
<linearGradient id="paint3_linear_2008_43" x1="395" y1="19.5" x2="-7.50001" y2="76" gradientUnits="userSpaceOnUse">
<stop stop-color="#8447E7"/>
<stop offset="1" stop-color="#EA4073"/>
</linearGradient>
<linearGradient id="paint4_linear_2008_43" x1="0" y1="76.5" x2="255" y2="76.5" gradientUnits="userSpaceOnUse">
<stop stop-color="#BE8AF9"/>
<stop offset="1" stop-color="#EDC9C6"/>
</linearGradient>
<linearGradient id="paint5_linear_2008_43" x1="309.5" y1="206.5" x2="16.5" y2="307" gradientUnits="userSpaceOnUse">
<stop stop-color="#BE8AF9"/>
<stop offset="1" stop-color="#EDC9C6"/>
</linearGradient>
</defs>
</svg>
