<svg width="1110" height="421" viewBox="0 0 1110 421" fill="none" xmlns="http://www.w3.org/2000/svg">
<path d="M0 0H497.641C502.392 0 506.986 1.69062 510.604 4.76921L558.146 45.2308C561.764 48.3094 566.359 50 571.109 50H764.735C769.73 50 774.544 51.869 778.231 55.2394L821.457 94.7606C825.143 98.131 829.957 100 834.952 100H851.875H941.25H1090C1101.05 100 1110 108.954 1110 120V421H555H0V0Z" fill="#D9D9D9"/>
<path d="M0 0H497.641C502.392 0 506.986 1.69062 510.604 4.76921L558.146 45.2308C561.764 48.3094 566.359 50 571.109 50H764.735C769.73 50 774.544 51.869 778.231 55.2394L821.457 94.7606C825.143 98.131 829.957 100 834.952 100H851.875H941.25H1090C1101.05 100 1110 108.954 1110 120V421H555H0V0Z" fill="url(#paint0_linear_2011_141)"/>
<mask id="mask0_2011_141" style="mask-type:alpha" maskUnits="userSpaceOnUse" x="0" y="0" width="1110" height="421">
<path d="M0 0H497.641C502.392 0 506.986 1.69062 510.604 4.76921L558.146 45.2308C561.764 48.3094 566.359 50 571.109 50H764.735C769.73 50 774.544 51.869 778.231 55.2394L821.457 94.7606C825.143 98.131 829.957 100 834.952 100H851.875H941.25H1090C1101.05 100 1110 108.954 1110 120V421H555H0V0Z" fill="#D9D9D9"/>
<path d="M0 0H497.641C502.392 0 506.986 1.69062 510.604 4.76921L558.146 45.2308C561.764 48.3094 566.359 50 571.109 50H764.735C769.73 50 774.544 51.869 778.231 55.2394L821.457 94.7606C825.143 98.131 829.957 100 834.952 100H851.875H941.25H1090C1101.05 100 1110 108.954 1110 120V421H555H0V0Z" fill="url(#paint1_linear_2011_141)"/>
</mask>
<g mask="url(#mask0_2011_141)">
<circle cx="590.947" cy="181.667" r="37.836" transform="rotate(30 590.947 181.667)" fill="white" fill-opacity="0.07"/>
<circle cx="505.816" cy="329.118" r="37.836" transform="rotate(30 505.816 329.118)" fill="white" fill-opacity="0.07"/>
<circle cx="676.078" cy="34.2152" r="37.836" transform="rotate(30 676.078 34.2152)" fill="white" fill-opacity="0.07"/>
<circle cx="463.25" cy="402.843" r="37.836" transform="rotate(30 463.25 402.843)" fill="white" fill-opacity="0.07"/>
<circle cx="633.512" cy="107.941" r="37.836" transform="rotate(30 633.512 107.941)" fill="white" fill-opacity="0.07"/>
<circle cx="548.381" cy="255.392" r="37.836" transform="rotate(30 548.381 255.392)" fill="white" fill-opacity="0.07"/>
<circle cx="718.643" cy="-39.5104" r="37.836" transform="rotate(30 718.643 -39.5104)" fill="white" fill-opacity="0.07"/>
<circle cx="1056.11" cy="57.0262" r="37.836" transform="rotate(30 1056.11 57.0262)" fill="white" fill-opacity="0.07"/>
<circle cx="885.849" cy="351.929" r="37.836" transform="rotate(30 885.849 351.929)" fill="white" fill-opacity="0.07"/>
<circle cx="970.98" cy="204.477" r="37.836" transform="rotate(30 970.98 204.477)" fill="white" fill-opacity="0.07"/>
<circle cx="1098.68" cy="-16.6993" r="37.836" transform="rotate(30 1098.68 -16.6993)" fill="white" fill-opacity="0.07"/>
<circle cx="928.415" cy="278.203" r="37.836" transform="rotate(30 928.415 278.203)" fill="white" fill-opacity="0.07"/>
<circle cx="843.284" cy="425.654" r="37.836" transform="rotate(30 843.284 425.654)" fill="white" fill-opacity="0.07"/>
<circle cx="1013.55" cy="130.752" r="37.836" transform="rotate(30 1013.55 130.752)" fill="white" fill-opacity="0.07"/>
<circle cx="908.66" cy="-28.1049" r="37.836" transform="rotate(30 908.66 -28.1049)" fill="white" fill-opacity="0.07"/>
<circle cx="738.398" cy="266.797" r="37.836" transform="rotate(30 738.398 266.797)" fill="white" fill-opacity="0.07"/>
<circle cx="653.267" cy="414.249" r="37.836" transform="rotate(30 653.267 414.249)" fill="white" fill-opacity="0.07"/>
<circle cx="823.529" cy="119.346" r="37.836" transform="rotate(30 823.529 119.346)" fill="white" fill-opacity="0.07"/>
<circle cx="780.964" cy="193.072" r="37.836" transform="rotate(30 780.964 193.072)" fill="white" fill-opacity="0.07"/>
<circle cx="695.833" cy="340.523" r="37.836" transform="rotate(30 695.833 340.523)" fill="white" fill-opacity="0.07"/>
<circle cx="866.095" cy="45.6207" r="37.836" transform="rotate(30 866.095 45.6207)" fill="white" fill-opacity="0.07"/>
<circle cx="1033.3" cy="437.059" r="37.836" transform="rotate(30 1033.3 437.059)" fill="white" fill-opacity="0.07"/>
<circle cx="1118.43" cy="289.608" r="37.836" transform="rotate(30 1118.43 289.608)" fill="white" fill-opacity="0.07"/>
<circle cx="1075.87" cy="363.334" r="37.836" transform="rotate(30 1075.87 363.334)" fill="white" fill-opacity="0.07"/>
<circle cx="1161" cy="215.883" r="37.836" transform="rotate(30 1161 215.883)" fill="white" fill-opacity="0.07"/>
<circle cx="664.673" cy="224.232" r="37.836" transform="rotate(30 664.673 224.232)" fill="white" fill-opacity="0.07"/>
<circle cx="579.541" cy="371.683" r="37.836" transform="rotate(30 579.541 371.683)" fill="white" fill-opacity="0.07"/>
<circle cx="749.803" cy="76.7809" r="37.836" transform="rotate(30 749.803 76.7809)" fill="white" fill-opacity="0.07"/>
<circle cx="536.976" cy="445.409" r="37.836" transform="rotate(30 536.976 445.409)" fill="white" fill-opacity="0.07"/>
<circle cx="707.238" cy="150.506" r="37.836" transform="rotate(30 707.238 150.506)" fill="white" fill-opacity="0.07"/>
<circle cx="622.107" cy="297.958" r="37.836" transform="rotate(30 622.107 297.958)" fill="white" fill-opacity="0.07"/>
<circle cx="792.369" cy="3.0553" r="37.836" transform="rotate(30 792.369 3.0553)" fill="white" fill-opacity="0.07"/>
<circle cx="1129.84" cy="99.5917" r="37.836" transform="rotate(30 1129.84 99.5917)" fill="white" fill-opacity="0.07"/>
<circle cx="959.575" cy="394.494" r="37.836" transform="rotate(30 959.575 394.494)" fill="white" fill-opacity="0.07"/>
<circle cx="1044.71" cy="247.043" r="37.836" transform="rotate(30 1044.71 247.043)" fill="white" fill-opacity="0.07"/>
<circle cx="1002.14" cy="320.768" r="37.836" transform="rotate(30 1002.14 320.768)" fill="white" fill-opacity="0.07"/>
<circle cx="917.009" cy="468.22" r="37.836" transform="rotate(30 917.009 468.22)" fill="white" fill-opacity="0.07"/>
<circle cx="1087.27" cy="173.317" r="37.836" transform="rotate(30 1087.27 173.317)" fill="white" fill-opacity="0.07"/>
<circle cx="982.386" cy="14.4606" r="37.836" transform="rotate(30 982.386 14.4606)" fill="white" fill-opacity="0.07"/>
<circle cx="812.124" cy="309.363" r="37.836" transform="rotate(30 812.124 309.363)" fill="white" fill-opacity="0.07"/>
<circle cx="726.993" cy="456.814" r="37.836" transform="rotate(30 726.993 456.814)" fill="white" fill-opacity="0.07"/>
<circle cx="897.255" cy="161.912" r="37.836" transform="rotate(30 897.255 161.912)" fill="white" fill-opacity="0.07"/>
<circle cx="854.689" cy="235.637" r="37.836" transform="rotate(30 854.689 235.637)" fill="white" fill-opacity="0.07"/>
<circle cx="769.558" cy="383.089" r="37.836" transform="rotate(30 769.558 383.089)" fill="white" fill-opacity="0.07"/>
<circle cx="939.82" cy="88.1862" r="37.836" transform="rotate(30 939.82 88.1862)" fill="white" fill-opacity="0.07"/>
<circle cx="1149.59" cy="405.899" r="37.836" transform="rotate(30 1149.59 405.899)" fill="white" fill-opacity="0.07"/>
</g>
<defs>
<linearGradient id="paint0_linear_2011_141" x1="533" y1="61.1" x2="1263.03" y2="516.548" gradientUnits="userSpaceOnUse">
<stop stop-color="#8C4CF5"/>
<stop offset="1" stop-color="#E8C2BA"/>
</linearGradient>
<linearGradient id="paint1_linear_2011_141" x1="533" y1="61.1" x2="1263.03" y2="516.548" gradientUnits="userSpaceOnUse">
<stop stop-color="#8C4CF5"/>
<stop offset="1" stop-color="#E8C2BA"/>
</linearGradient>
</defs>
</svg>
