<svg width="1110" height="400" viewBox="0 0 1110 400" fill="none" xmlns="http://www.w3.org/2000/svg">
<mask id="mask0_6_3" style="mask-type:alpha" maskUnits="userSpaceOnUse" x="0" y="0" width="1110" height="400">
<path d="M0 62.5C0 57.8056 3.80558 54 8.5 54H243.232C250.495 54 257.188 50.0622 260.715 43.7129L279.285 10.2871C282.812 3.93783 289.505 0 296.768 0H555H1090C1101.05 0 1110 8.95431 1110 20V380C1110 391.046 1101.05 400 1090 400H20C8.95429 400 0 391.046 0 380V250V125V62.5Z" fill="url(#paint0_linear_6_3)"/>
</mask>
<g mask="url(#mask0_6_3)">
<circle cx="710.209" cy="162.764" r="37.836" transform="rotate(30 710.209 162.764)" fill="white" fill-opacity="0.07"/>
<circle cx="795.34" cy="15.313" r="37.836" transform="rotate(30 795.34 15.313)" fill="white" fill-opacity="0.07"/>
<circle cx="625.078" cy="310.215" r="37.836" transform="rotate(30 625.078 310.215)" fill="white" fill-opacity="0.07"/>
<circle cx="752.774" cy="89.0386" r="37.836" transform="rotate(30 752.774 89.0386)" fill="white" fill-opacity="0.07"/>
<circle cx="582.512" cy="383.941" r="37.836" transform="rotate(30 582.512 383.941)" fill="white" fill-opacity="0.07"/>
<circle cx="667.643" cy="236.49" r="37.836" transform="rotate(30 667.643 236.49)" fill="white" fill-opacity="0.07"/>
<circle cx="1005.11" cy="333.026" r="37.836" transform="rotate(30 1005.11 333.026)" fill="white" fill-opacity="0.07"/>
<circle cx="1090.24" cy="185.575" r="37.836" transform="rotate(30 1090.24 185.575)" fill="white" fill-opacity="0.07"/>
<circle cx="1047.68" cy="259.301" r="37.836" transform="rotate(30 1047.68 259.301)" fill="white" fill-opacity="0.07"/>
<circle cx="1132.81" cy="111.849" r="37.836" transform="rotate(30 1132.81 111.849)" fill="white" fill-opacity="0.07"/>
<circle cx="962.546" cy="406.752" r="37.836" transform="rotate(30 962.546 406.752)" fill="white" fill-opacity="0.07"/>
<circle cx="857.66" cy="247.895" r="37.836" transform="rotate(30 857.66 247.895)" fill="white" fill-opacity="0.07"/>
<circle cx="1027.92" cy="-47.0073" r="37.836" transform="rotate(30 1027.92 -47.0073)" fill="white" fill-opacity="0.07"/>
<circle cx="942.791" cy="100.444" r="37.836" transform="rotate(30 942.791 100.444)" fill="white" fill-opacity="0.07"/>
<circle cx="772.529" cy="395.346" r="37.836" transform="rotate(30 772.529 395.346)" fill="white" fill-opacity="0.07"/>
<circle cx="900.226" cy="174.17" r="37.836" transform="rotate(30 900.226 174.17)" fill="white" fill-opacity="0.07"/>
<circle cx="985.357" cy="26.7183" r="37.836" transform="rotate(30 985.357 26.7183)" fill="white" fill-opacity="0.07"/>
<circle cx="815.095" cy="321.621" r="37.836" transform="rotate(30 815.095 321.621)" fill="white" fill-opacity="0.07"/>
<circle cx="1152.56" cy="418.157" r="37.836" transform="rotate(30 1152.56 418.157)" fill="white" fill-opacity="0.07"/>
<circle cx="783.934" cy="205.33" r="37.836" transform="rotate(30 783.934 205.33)" fill="white" fill-opacity="0.07"/>
<circle cx="869.065" cy="57.8784" r="37.836" transform="rotate(30 869.065 57.8784)" fill="white" fill-opacity="0.07"/>
<circle cx="698.803" cy="352.781" r="37.836" transform="rotate(30 698.803 352.781)" fill="white" fill-opacity="0.07"/>
<circle cx="826.5" cy="131.604" r="37.836" transform="rotate(30 826.5 131.604)" fill="white" fill-opacity="0.07"/>
<circle cx="656.238" cy="426.506" r="37.836" transform="rotate(30 656.238 426.506)" fill="white" fill-opacity="0.07"/>
<circle cx="911.631" cy="-15.8471" r="37.836" transform="rotate(30 911.631 -15.8471)" fill="white" fill-opacity="0.07"/>
<circle cx="741.369" cy="279.055" r="37.836" transform="rotate(30 741.369 279.055)" fill="white" fill-opacity="0.07"/>
<circle cx="1078.84" cy="375.592" r="37.836" transform="rotate(30 1078.84 375.592)" fill="white" fill-opacity="0.07"/>
<circle cx="1121.4" cy="301.866" r="37.836" transform="rotate(30 1121.4 301.866)" fill="white" fill-opacity="0.07"/>
<circle cx="1036.27" cy="449.317" r="37.836" transform="rotate(30 1036.27 449.317)" fill="white" fill-opacity="0.07"/>
<circle cx="931.386" cy="290.461" r="37.836" transform="rotate(30 931.386 290.461)" fill="white" fill-opacity="0.07"/>
<circle cx="1101.65" cy="-4.44168" r="37.836" transform="rotate(30 1101.65 -4.44168)" fill="white" fill-opacity="0.07"/>
<circle cx="1016.52" cy="143.009" r="37.836" transform="rotate(30 1016.52 143.009)" fill="white" fill-opacity="0.07"/>
<circle cx="846.255" cy="437.912" r="37.836" transform="rotate(30 846.255 437.912)" fill="white" fill-opacity="0.07"/>
<circle cx="973.951" cy="216.735" r="37.836" transform="rotate(30 973.951 216.735)" fill="white" fill-opacity="0.07"/>
<circle cx="1059.08" cy="69.2838" r="37.836" transform="rotate(30 1059.08 69.2838)" fill="white" fill-opacity="0.07"/>
<circle cx="888.82" cy="364.186" r="37.836" transform="rotate(30 888.82 364.186)" fill="white" fill-opacity="0.07"/>
</g>
<defs>
<linearGradient id="paint0_linear_6_3" x1="533" y1="40" x2="1064.5" y2="546.5" gradientUnits="userSpaceOnUse">
<stop stop-color="#8C4CF5"/>
<stop offset="1" stop-color="#E8C2BA"/>
</linearGradient>
</defs>
</svg>
