<svg width="1110" height="421" viewBox="0 0 1110 421" fill="none" xmlns="http://www.w3.org/2000/svg">
<path d="M0 401C0 412.046 8.95431 421 20 421H257.641C262.391 421 266.986 419.309 270.604 416.231L318.146 375.769C321.764 372.691 326.358 371 331.109 371H524.735C529.73 371 534.544 369.131 538.231 365.761L581.457 326.239C585.143 322.869 589.957 321 594.952 321H1090C1101.05 321 1110 312.046 1110 301V20C1110 8.95428 1101.05 0 1090 0H555H20C8.95429 0 0 8.95432 0 20V401Z" fill="#D9D9D9"/>
<path d="M0 401C0 412.046 8.95431 421 20 421H257.641C262.391 421 266.986 419.309 270.604 416.231L318.146 375.769C321.764 372.691 326.358 371 331.109 371H524.735C529.73 371 534.544 369.131 538.231 365.761L581.457 326.239C585.143 322.869 589.957 321 594.952 321H1090C1101.05 321 1110 312.046 1110 301V20C1110 8.95428 1101.05 0 1090 0H555H20C8.95429 0 0 8.95432 0 20V401Z" fill="url(#paint0_linear_67_3497)"/>
<defs>
<linearGradient id="paint0_linear_67_3497" x1="123.98" y1="363.591" x2="870.134" y2="-219.916" gradientUnits="userSpaceOnUse">
<stop stop-color="#8C4CF5"/>
<stop offset="1" stop-color="#E8C2BA"/>
</linearGradient>
</defs>
</svg>
