<svg width="392" height="421" viewBox="0 0 392 421" fill="none" xmlns="http://www.w3.org/2000/svg">
<path d="M0.5 401C0.5 412.046 9.45431 421 20.5 421H43.1415C47.8915 421 52.4865 419.309 56.1038 416.231L103.646 375.769C107.264 372.691 111.859 371 116.609 371H169.735C174.73 371 179.544 369.131 183.231 365.761L226.457 326.239C230.143 322.869 234.957 321 239.952 321H372C383.046 321 392 312.046 392 301V20C392 8.9543 383.046 0 372 0H200H20.5C9.4543 0 0.5 8.95431 0.5 20V401Z" fill="#D9D9D9"/>
<path d="M0.5 401C0.5 412.046 9.45431 421 20.5 421H43.1415C47.8915 421 52.4865 419.309 56.1038 416.231L103.646 375.769C107.264 372.691 111.859 371 116.609 371H169.735C174.73 371 179.544 369.131 183.231 365.761L226.457 326.239C230.143 322.869 234.957 321 239.952 321H372C383.046 321 392 312.046 392 301V20C392 8.9543 383.046 0 372 0H200H20.5C9.4543 0 0.5 8.95431 0.5 20V401Z" fill="url(#paint0_linear_67_3498)"/>
<defs>
<linearGradient id="paint0_linear_67_3498" x1="152.98" y1="363.591" x2="899.134" y2="-219.916" gradientUnits="userSpaceOnUse">
<stop stop-color="#8C4CF5"/>
<stop offset="1" stop-color="#E8C2BA"/>
</linearGradient>
</defs>
</svg>
