<svg width="350" height="1970" viewBox="0 0 350 1970" fill="none" xmlns="http://www.w3.org/2000/svg">
<circle cx="39.9998" cy="1389.99" r="39.9998" fill="white" fill-opacity="0.07"/>
<circle cx="39.9998" cy="669.997" r="39.9998" fill="white" fill-opacity="0.07"/>
<circle cx="39.9998" cy="1030" r="39.9998" fill="white" fill-opacity="0.07"/>
<circle cx="39.9998" cy="1659.89" r="39.9998" fill="white" fill-opacity="0.07"/>
<circle cx="39.9998" cy="309.999" r="39.9998" fill="white" fill-opacity="0.07"/>
<circle cx="39.9998" cy="1209.99" r="39.9998" fill="white" fill-opacity="0.07"/>
<circle cx="39.9998" cy="1839.89" r="39.9998" fill="white" fill-opacity="0.07"/>
<circle cx="39.9998" cy="489.998" r="39.9998" fill="white" fill-opacity="0.07"/>
<circle cx="39.9998" cy="849.996" r="39.9998" fill="white" fill-opacity="0.07"/>
<circle cx="39.9998" cy="1479.89" r="39.9998" fill="white" fill-opacity="0.07"/>
<circle cx="39.9998" cy="129.999" r="39.9998" fill="white" fill-opacity="0.07"/>
<circle cx="39.9998" cy="1299.99" r="39.9998" fill="white" fill-opacity="0.07"/>
<circle cx="39.9998" cy="1929.89" r="39.9998" fill="white" fill-opacity="0.07"/>
<circle cx="39.9998" cy="579.997" r="39.9998" fill="white" fill-opacity="0.07"/>
<circle cx="39.9998" cy="939.996" r="39.9998" fill="white" fill-opacity="0.07"/>
<circle cx="39.9998" cy="1569.89" r="39.9998" fill="white" fill-opacity="0.07"/>
<circle cx="39.9998" cy="219.999" r="39.9998" fill="white" fill-opacity="0.07"/>
<circle cx="39.9998" cy="1119.99" r="39.9998" fill="white" fill-opacity="0.07"/>
<circle cx="39.9998" cy="1749.89" r="39.9998" fill="white" fill-opacity="0.07"/>
<circle cx="39.9998" cy="399.998" r="39.9998" fill="white" fill-opacity="0.07"/>
<circle cx="39.9998" cy="759.996" r="39.9998" fill="white" fill-opacity="0.07"/>
<circle cx="39.9998" cy="39.9998" r="39.9998" fill="white" fill-opacity="0.07"/>
<circle cx="219.998" cy="1389.99" r="39.9998" fill="white" fill-opacity="0.07"/>
<circle cx="220" cy="669.997" r="39.9998" fill="white" fill-opacity="0.07"/>
<circle cx="219.998" cy="1030" r="39.9998" fill="white" fill-opacity="0.07"/>
<circle cx="219.998" cy="1659.89" r="39.9998" fill="white" fill-opacity="0.07"/>
<circle cx="219.998" cy="309.998" r="39.9998" fill="white" fill-opacity="0.07"/>
<circle cx="219.998" cy="1209.99" r="39.9998" fill="white" fill-opacity="0.07"/>
<circle cx="219.998" cy="1839.89" r="39.9998" fill="white" fill-opacity="0.07"/>
<circle cx="219.998" cy="489.998" r="39.9998" fill="white" fill-opacity="0.07"/>
<circle cx="219.998" cy="849.996" r="39.9998" fill="white" fill-opacity="0.07"/>
<circle cx="219.998" cy="1479.89" r="39.9998" fill="white" fill-opacity="0.07"/>
<circle cx="219.998" cy="129.999" r="39.9998" fill="white" fill-opacity="0.07"/>
<circle cx="219.998" cy="1299.99" r="39.9998" fill="white" fill-opacity="0.07"/>
<circle cx="219.998" cy="1929.89" r="39.9998" fill="white" fill-opacity="0.07"/>
<circle cx="219.998" cy="579.997" r="39.9998" fill="white" fill-opacity="0.07"/>
<circle cx="219.998" cy="939.996" r="39.9998" fill="white" fill-opacity="0.07"/>
<circle cx="219.998" cy="1569.89" r="39.9998" fill="white" fill-opacity="0.07"/>
<circle cx="219.998" cy="219.999" r="39.9998" fill="white" fill-opacity="0.07"/>
<circle cx="219.998" cy="1119.99" r="39.9998" fill="white" fill-opacity="0.07"/>
<circle cx="219.998" cy="1749.89" r="39.9998" fill="white" fill-opacity="0.07"/>
<circle cx="219.998" cy="399.998" r="39.9998" fill="white" fill-opacity="0.07"/>
<circle cx="220" cy="759.996" r="39.9998" fill="white" fill-opacity="0.07"/>
<circle cx="219.998" cy="39.9999" r="39.9998" fill="white" fill-opacity="0.07"/>
<circle cx="130" cy="1389.99" r="39.9998" fill="white" fill-opacity="0.07"/>
<circle cx="130" cy="669.997" r="39.9998" fill="white" fill-opacity="0.07"/>
<circle cx="130" cy="1030" r="39.9998" fill="white" fill-opacity="0.07"/>
<circle cx="130" cy="1659.89" r="39.9998" fill="white" fill-opacity="0.07"/>
<circle cx="130" cy="309.999" r="39.9998" fill="white" fill-opacity="0.07"/>
<circle cx="130" cy="1209.99" r="39.9998" fill="white" fill-opacity="0.07"/>
<circle cx="130" cy="1839.89" r="39.9998" fill="white" fill-opacity="0.07"/>
<circle cx="130" cy="489.998" r="39.9998" fill="white" fill-opacity="0.07"/>
<circle cx="130" cy="849.996" r="39.9998" fill="white" fill-opacity="0.07"/>
<circle cx="130" cy="1479.89" r="39.9998" fill="white" fill-opacity="0.07"/>
<circle cx="130" cy="129.999" r="39.9998" fill="white" fill-opacity="0.07"/>
<circle cx="130" cy="1299.99" r="39.9998" fill="white" fill-opacity="0.07"/>
<circle cx="130" cy="1929.89" r="39.9998" fill="white" fill-opacity="0.07"/>
<circle cx="130" cy="579.997" r="39.9998" fill="white" fill-opacity="0.07"/>
<circle cx="130" cy="939.996" r="39.9998" fill="white" fill-opacity="0.07"/>
<circle cx="130" cy="1569.89" r="39.9998" fill="white" fill-opacity="0.07"/>
<circle cx="130" cy="219.999" r="39.9998" fill="white" fill-opacity="0.07"/>
<circle cx="130" cy="1119.99" r="39.9998" fill="white" fill-opacity="0.07"/>
<circle cx="130" cy="1749.89" r="39.9998" fill="white" fill-opacity="0.07"/>
<circle cx="130" cy="399.998" r="39.9998" fill="white" fill-opacity="0.07"/>
<circle cx="130" cy="759.996" r="39.9998" fill="white" fill-opacity="0.07"/>
<circle cx="130" cy="39.9999" r="39.9998" fill="white" fill-opacity="0.07"/>
<circle cx="309.998" cy="1389.99" r="39.9998" fill="white" fill-opacity="0.07"/>
<circle cx="310" cy="669.997" r="39.9998" fill="white" fill-opacity="0.07"/>
<circle cx="309.998" cy="1030" r="39.9998" fill="white" fill-opacity="0.07"/>
<circle cx="309.998" cy="1659.89" r="39.9998" fill="white" fill-opacity="0.07"/>
<circle cx="309.998" cy="309.999" r="39.9998" fill="white" fill-opacity="0.07"/>
<circle cx="309.998" cy="1209.99" r="39.9998" fill="white" fill-opacity="0.07"/>
<circle cx="309.998" cy="1839.89" r="39.9998" fill="white" fill-opacity="0.07"/>
<circle cx="309.998" cy="489.998" r="39.9998" fill="white" fill-opacity="0.07"/>
<circle cx="309.998" cy="849.996" r="39.9998" fill="white" fill-opacity="0.07"/>
<circle cx="309.998" cy="1479.89" r="39.9998" fill="white" fill-opacity="0.07"/>
<circle cx="309.998" cy="129.999" r="39.9998" fill="white" fill-opacity="0.07"/>
<circle cx="309.998" cy="1299.99" r="39.9998" fill="white" fill-opacity="0.07"/>
<circle cx="309.998" cy="1929.89" r="39.9998" fill="white" fill-opacity="0.07"/>
<circle cx="310" cy="579.997" r="39.9998" fill="white" fill-opacity="0.07"/>
<circle cx="309.998" cy="939.996" r="39.9998" fill="white" fill-opacity="0.07"/>
<circle cx="309.998" cy="1569.89" r="39.9998" fill="white" fill-opacity="0.07"/>
<circle cx="309.998" cy="219.999" r="39.9998" fill="white" fill-opacity="0.07"/>
<circle cx="309.998" cy="1119.99" r="39.9998" fill="white" fill-opacity="0.07"/>
<circle cx="309.998" cy="1749.89" r="39.9998" fill="white" fill-opacity="0.07"/>
<circle cx="309.998" cy="399.998" r="39.9998" fill="white" fill-opacity="0.07"/>
<circle cx="310" cy="759.996" r="39.9998" fill="white" fill-opacity="0.07"/>
<circle cx="309.998" cy="40" r="39.9998" fill="white" fill-opacity="0.07"/>
</svg>
